<svg xmlns="http://www.w3.org/2000/svg" xmlns:xlink="http://www.w3.org/1999/xlink" width="1080" zoomAndPan="magnify" viewBox="0 0 810 809.999993" height="1080" preserveAspectRatio="xMidYMid meet" version="1.0"><defs><filter x="0%" y="0%" width="100%" height="100%" id="8c00323097"><feColorMatrix values="0 0 0 0 1 0 0 0 0 1 0 0 0 0 1 0 0 0 1 0" color-interpolation-filters="sRGB"/></filter><mask id="edd73f7f3e"><g filter="url(#8c00323097)"><rect x="-81" width="972" fill="#000000" y="-80.999999" height="971.999992" fill-opacity="0.1"/></g></mask><clipPath id="ae902afcd7"><path d="M 0.113281 1.050781 L 11.621094 1.050781 L 11.621094 12.75 L 0.113281 12.75 Z M 0.113281 1.050781 " clip-rule="nonzero"/></clipPath><clipPath id="e234c70177"><rect x="0" width="12" y="0" height="13"/></clipPath><mask id="ae6676cdfb"><g filter="url(#8c00323097)"><rect x="-81" width="972" fill="#000000" y="-80.999999" height="971.999992" fill-opacity="0.1"/></g></mask><clipPath id="bdef7cbf4e"><path d="M 0.113281 0.75 L 11.621094 0.75 L 11.621094 12.445312 L 0.113281 12.445312 Z M 0.113281 0.75 " clip-rule="nonzero"/></clipPath><clipPath id="71e712495f"><rect x="0" width="12" y="0" height="13"/></clipPath><mask id="fe4f202a66"><g filter="url(#8c00323097)"><rect x="-81" width="972" fill="#000000" y="-80.999999" height="971.999992" fill-opacity="0.1"/></g></mask><clipPath id="8212f3856c"><path d="M 0.0703125 0.445312 L 11.578125 0.445312 L 11.578125 12.144531 L 0.0703125 12.144531 Z M 0.0703125 0.445312 " clip-rule="nonzero"/></clipPath><clipPath id="374f8d829d"><rect x="0" width="12" y="0" height="13"/></clipPath><mask id="546bcd4ed0"><g filter="url(#8c00323097)"><rect x="-81" width="972" fill="#000000" y="-80.999999" height="971.999992" fill-opacity="0.1"/></g></mask><clipPath id="cee501ac54"><path d="M 0.847656 1.050781 L 12.355469 1.050781 L 12.355469 12.75 L 0.847656 12.75 Z M 0.847656 1.050781 " clip-rule="nonzero"/></clipPath><clipPath id="dd7b3fbd02"><rect x="0" width="13" y="0" height="13"/></clipPath><mask id="928ca77f5b"><g filter="url(#8c00323097)"><rect x="-81" width="972" fill="#000000" y="-80.999999" height="971.999992" fill-opacity="0.1"/></g></mask><clipPath id="337187ecee"><path d="M 0.847656 0.75 L 12.355469 0.75 L 12.355469 12.445312 L 0.847656 12.445312 Z M 0.847656 0.75 " clip-rule="nonzero"/></clipPath><clipPath id="fdea77f2bb"><rect x="0" width="13" y="0" height="13"/></clipPath><mask id="a5e09a4da5"><g filter="url(#8c00323097)"><rect x="-81" width="972" fill="#000000" y="-80.999999" height="971.999992" fill-opacity="0.1"/></g></mask><clipPath id="766f222a2f"><path d="M 0.800781 0.445312 L 12.308594 0.445312 L 12.308594 12.144531 L 0.800781 12.144531 Z M 0.800781 0.445312 " clip-rule="nonzero"/></clipPath><clipPath id="bbe1eb6d5b"><rect x="0" width="13" y="0" height="13"/></clipPath><mask id="eaf9b534b9"><g filter="url(#8c00323097)"><rect x="-81" width="972" fill="#000000" y="-80.999999" height="971.999992" fill-opacity="0.1"/></g></mask><clipPath id="823397b613"><path d="M 0.691406 1.050781 L 12.199219 1.050781 L 12.199219 12.75 L 0.691406 12.75 Z M 0.691406 1.050781 " clip-rule="nonzero"/></clipPath><clipPath id="63c98bed80"><rect x="0" width="13" y="0" height="13"/></clipPath><mask id="c4f2bf467c"><g filter="url(#8c00323097)"><rect x="-81" width="972" fill="#000000" y="-80.999999" height="971.999992" fill-opacity="0.1"/></g></mask><clipPath id="bfe8fd6c94"><path d="M 0.691406 0.75 L 12.199219 0.75 L 12.199219 12.445312 L 0.691406 12.445312 Z M 0.691406 0.75 " clip-rule="nonzero"/></clipPath><clipPath id="436af38e47"><rect x="0" width="13" y="0" height="13"/></clipPath><mask id="9e3faca7ce"><g filter="url(#8c00323097)"><rect x="-81" width="972" fill="#000000" y="-80.999999" height="971.999992" fill-opacity="0.1"/></g></mask><clipPath id="75454e66af"><path d="M 0.644531 0.445312 L 12.152344 0.445312 L 12.152344 12.144531 L 0.644531 12.144531 Z M 0.644531 0.445312 " clip-rule="nonzero"/></clipPath><clipPath id="94716d20d1"><rect x="0" width="13" y="0" height="13"/></clipPath><mask id="be1ff5e4e1"><g filter="url(#8c00323097)"><rect x="-81" width="972" fill="#000000" y="-80.999999" height="971.999992" fill-opacity="0.1"/></g></mask><clipPath id="42b6144495"><path d="M 0.46875 1.050781 L 11.976562 1.050781 L 11.976562 12.75 L 0.46875 12.75 Z M 0.46875 1.050781 " clip-rule="nonzero"/></clipPath><clipPath id="16283a9ca0"><rect x="0" width="13" y="0" height="13"/></clipPath><mask id="817a3deb5d"><g filter="url(#8c00323097)"><rect x="-81" width="972" fill="#000000" y="-80.999999" height="971.999992" fill-opacity="0.1"/></g></mask><clipPath id="1b8aaf2dcd"><path d="M 0.46875 0.75 L 11.976562 0.75 L 11.976562 12.445312 L 0.46875 12.445312 Z M 0.46875 0.75 " clip-rule="nonzero"/></clipPath><clipPath id="96ac43c5bd"><rect x="0" width="13" y="0" height="13"/></clipPath><mask id="9410e6a491"><g filter="url(#8c00323097)"><rect x="-81" width="972" fill="#000000" y="-80.999999" height="971.999992" fill-opacity="0.1"/></g></mask><clipPath id="8f7ee8f23f"><path d="M 0.421875 0.445312 L 11.929688 0.445312 L 11.929688 12.144531 L 0.421875 12.144531 Z M 0.421875 0.445312 " clip-rule="nonzero"/></clipPath><clipPath id="a88065af2f"><rect x="0" width="12" y="0" height="13"/></clipPath><mask id="3a29ac6487"><g filter="url(#8c00323097)"><rect x="-81" width="972" fill="#000000" y="-80.999999" height="971.999992" fill-opacity="0.1"/></g></mask><clipPath id="68af777a3d"><path d="M 0.113281 0.355469 L 11.621094 0.355469 L 11.621094 12.050781 L 0.113281 12.050781 Z M 0.113281 0.355469 " clip-rule="nonzero"/></clipPath><clipPath id="f1caa96ad6"><rect x="0" width="12" y="0" height="13"/></clipPath><mask id="53682b48ff"><g filter="url(#8c00323097)"><rect x="-81" width="972" fill="#000000" y="-80.999999" height="971.999992" fill-opacity="0.1"/></g></mask><clipPath id="bb0d831319"><path d="M 0.847656 0.355469 L 12.355469 0.355469 L 12.355469 12.050781 L 0.847656 12.050781 Z M 0.847656 0.355469 " clip-rule="nonzero"/></clipPath><clipPath id="034cece84f"><rect x="0" width="13" y="0" height="13"/></clipPath><mask id="f1e176071b"><g filter="url(#8c00323097)"><rect x="-81" width="972" fill="#000000" y="-80.999999" height="971.999992" fill-opacity="0.1"/></g></mask><clipPath id="5a61a4c808"><path d="M 0.691406 0.355469 L 12.199219 0.355469 L 12.199219 12.050781 L 0.691406 12.050781 Z M 0.691406 0.355469 " clip-rule="nonzero"/></clipPath><clipPath id="2e15e992c6"><rect x="0" width="13" y="0" height="13"/></clipPath><mask id="89e950d982"><g filter="url(#8c00323097)"><rect x="-81" width="972" fill="#000000" y="-80.999999" height="971.999992" fill-opacity="0.1"/></g></mask><clipPath id="3b2bc54259"><path d="M 0.46875 0.355469 L 11.976562 0.355469 L 11.976562 12.050781 L 0.46875 12.050781 Z M 0.46875 0.355469 " clip-rule="nonzero"/></clipPath><clipPath id="e043480795"><rect x="0" width="13" y="0" height="13"/></clipPath></defs><g mask="url(#edd73f7f3e)"><g transform="matrix(1, 0, 0, 1, 95, 296)"><g clip-path="url(#e234c70177)"><g clip-path="url(#ae902afcd7)"><path fill="#ffffff" d="M 0.113281 1.050781 L 11.621094 1.050781 L 11.621094 12.738281 L 0.113281 12.738281 Z M 0.113281 1.050781 " fill-opacity="1" fill-rule="nonzero"/></g></g></g></g><g mask="url(#ae6676cdfb)"><g transform="matrix(1, 0, 0, 1, 95, 500)"><g clip-path="url(#71e712495f)"><g clip-path="url(#bdef7cbf4e)"><path fill="#ffffff" d="M 0.113281 0.75 L 11.621094 0.75 L 11.621094 12.4375 L 0.113281 12.4375 Z M 0.113281 0.75 " fill-opacity="1" fill-rule="nonzero"/></g></g></g></g><g mask="url(#fe4f202a66)"><g transform="matrix(1, 0, 0, 1, 95, 704)"><g clip-path="url(#374f8d829d)"><g clip-path="url(#8212f3856c)"><path fill="#ffffff" d="M 0.0703125 0.445312 L 11.578125 0.445312 L 11.578125 12.132812 L 0.0703125 12.132812 Z M 0.0703125 0.445312 " fill-opacity="1" fill-rule="nonzero"/></g></g></g></g><g mask="url(#546bcd4ed0)"><g transform="matrix(1, 0, 0, 1, 297, 296)"><g clip-path="url(#dd7b3fbd02)"><g clip-path="url(#cee501ac54)"><path fill="#ffffff" d="M 0.847656 1.050781 L 12.355469 1.050781 L 12.355469 12.738281 L 0.847656 12.738281 Z M 0.847656 1.050781 " fill-opacity="1" fill-rule="nonzero"/></g></g></g></g><g mask="url(#928ca77f5b)"><g transform="matrix(1, 0, 0, 1, 297, 500)"><g clip-path="url(#fdea77f2bb)"><g clip-path="url(#337187ecee)"><path fill="#ffffff" d="M 0.847656 0.75 L 12.355469 0.75 L 12.355469 12.4375 L 0.847656 12.4375 Z M 0.847656 0.75 " fill-opacity="1" fill-rule="nonzero"/></g></g></g></g><g mask="url(#a5e09a4da5)"><g transform="matrix(1, 0, 0, 1, 297, 704)"><g clip-path="url(#bbe1eb6d5b)"><g clip-path="url(#766f222a2f)"><path fill="#ffffff" d="M 0.800781 0.445312 L 12.308594 0.445312 L 12.308594 12.132812 L 0.800781 12.132812 Z M 0.800781 0.445312 " fill-opacity="1" fill-rule="nonzero"/></g></g></g></g><g mask="url(#eaf9b534b9)"><g transform="matrix(1, 0, 0, 1, 500, 296)"><g clip-path="url(#63c98bed80)"><g clip-path="url(#823397b613)"><path fill="#ffffff" d="M 0.691406 1.050781 L 12.199219 1.050781 L 12.199219 12.738281 L 0.691406 12.738281 Z M 0.691406 1.050781 " fill-opacity="1" fill-rule="nonzero"/></g></g></g></g><g mask="url(#c4f2bf467c)"><g transform="matrix(1, 0, 0, 1, 500, 500)"><g clip-path="url(#436af38e47)"><g clip-path="url(#bfe8fd6c94)"><path fill="#ffffff" d="M 0.691406 0.75 L 12.199219 0.75 L 12.199219 12.4375 L 0.691406 12.4375 Z M 0.691406 0.75 " fill-opacity="1" fill-rule="nonzero"/></g></g></g></g><g mask="url(#9e3faca7ce)"><g transform="matrix(1, 0, 0, 1, 500, 704)"><g clip-path="url(#94716d20d1)"><g clip-path="url(#75454e66af)"><path fill="#ffffff" d="M 0.644531 0.445312 L 12.152344 0.445312 L 12.152344 12.132812 L 0.644531 12.132812 Z M 0.644531 0.445312 " fill-opacity="1" fill-rule="nonzero"/></g></g></g></g><g mask="url(#be1ff5e4e1)"><g transform="matrix(1, 0, 0, 1, 703, 296)"><g clip-path="url(#16283a9ca0)"><g clip-path="url(#42b6144495)"><path fill="#ffffff" d="M 0.46875 1.050781 L 11.976562 1.050781 L 11.976562 12.738281 L 0.46875 12.738281 Z M 0.46875 1.050781 " fill-opacity="1" fill-rule="nonzero"/></g></g></g></g><g mask="url(#817a3deb5d)"><g transform="matrix(1, 0, 0, 1, 703, 500)"><g clip-path="url(#96ac43c5bd)"><g clip-path="url(#1b8aaf2dcd)"><path fill="#ffffff" d="M 0.46875 0.75 L 11.976562 0.75 L 11.976562 12.4375 L 0.46875 12.4375 Z M 0.46875 0.75 " fill-opacity="1" fill-rule="nonzero"/></g></g></g></g><g mask="url(#9410e6a491)"><g transform="matrix(1, 0, 0, 1, 703, 704)"><g clip-path="url(#a88065af2f)"><g clip-path="url(#8f7ee8f23f)"><path fill="#ffffff" d="M 0.421875 0.445312 L 11.929688 0.445312 L 11.929688 12.132812 L 0.421875 12.132812 Z M 0.421875 0.445312 " fill-opacity="1" fill-rule="nonzero"/></g></g></g></g><g mask="url(#3a29ac6487)"><g transform="matrix(1, 0, 0, 1, 95, 93)"><g clip-path="url(#f1caa96ad6)"><g clip-path="url(#68af777a3d)"><path fill="#ffffff" d="M 0.113281 0.355469 L 11.621094 0.355469 L 11.621094 12.042969 L 0.113281 12.042969 Z M 0.113281 0.355469 " fill-opacity="1" fill-rule="nonzero"/></g></g></g></g><g mask="url(#53682b48ff)"><g transform="matrix(1, 0, 0, 1, 297, 93)"><g clip-path="url(#034cece84f)"><g clip-path="url(#bb0d831319)"><path fill="#ffffff" d="M 0.847656 0.355469 L 12.355469 0.355469 L 12.355469 12.042969 L 0.847656 12.042969 Z M 0.847656 0.355469 " fill-opacity="1" fill-rule="nonzero"/></g></g></g></g><g mask="url(#f1e176071b)"><g transform="matrix(1, 0, 0, 1, 500, 93)"><g clip-path="url(#2e15e992c6)"><g clip-path="url(#5a61a4c808)"><path fill="#ffffff" d="M 0.691406 0.355469 L 12.199219 0.355469 L 12.199219 12.042969 L 0.691406 12.042969 Z M 0.691406 0.355469 " fill-opacity="1" fill-rule="nonzero"/></g></g></g></g><g mask="url(#89e950d982)"><g transform="matrix(1, 0, 0, 1, 703, 93)"><g clip-path="url(#e043480795)"><g clip-path="url(#3b2bc54259)"><path fill="#ffffff" d="M 0.46875 0.355469 L 11.976562 0.355469 L 11.976562 12.042969 L 0.46875 12.042969 Z M 0.46875 0.355469 " fill-opacity="1" fill-rule="nonzero"/></g></g></g></g></svg>